<?xml version="1.0" encoding="utf-8"?>
<!-- Generator: Adobe Illustrator 22.1.0, SVG Export Plug-In . SVG Version: 6.00 Build 0)  -->
<svg version="1.1" id="Layer_1" xmlns="http://www.w3.org/2000/svg" xmlns:xlink="http://www.w3.org/1999/xlink" x="0px" y="0px"
	 viewBox="0 0 24 24" width="24" height="24" style="enable-background:new 0 0 24 24;" xml:space="preserve">
<style type="text/css">
	.st0{fill:#999;}
</style>
<title>checkedbox</title>
<desc>Created with Sketch.</desc>
<g id="Symbols">
	<g id="Forms_x2F_Checkbox_x2F_Checked">
		<g id="checkedbox">
			<path class="st0" d="M19,24H5c-2.8,0-5-2.2-5-5V5c0-2.8,2.2-5,5-5h14c2.8,0,5,2.2,5,5v14C24,21.8,21.8,24,19,24z M5,2
				C3.3,2,2,3.3,2,5v14c0,1.7,1.3,3,3,3h14c1.7,0,3-1.3,3-3V5c0-1.7-1.3-3-3-3H5z"/>
			<path id="Shape" d="M5.2,13.1C5.1,12.9,5,12.8,5,12.7s0.1-0.3,0.2-0.4l0.8-0.8c0.2-0.2,0.5-0.2,0.8,0l0.1,0.1l3,3.2
				c0.1,0.1,0.3,0.1,0.4,0l7.2-7.6h0.1c0.2-0.2,0.5-0.2,0.8,0l0.8,0.8c0.2,0.2,0.2,0.5,0,0.8l-8.6,9.1C10.1,17.9,10,18,9.8,18
				c-0.2,0-0.3-0.1-0.4-0.2l-4.2-4.6L5.2,13.1z"/>
		</g>
	</g>
</g>
</svg>
